<svg width="386" height="109" viewBox="0 0 386 109" fill="none" xmlns="http://www.w3.org/2000/svg">
<path d="M330.698 0H54.3691C24.3419 0 0 24.3099 0 54.2977V54.3316C0 84.3194 24.3419 108.629 54.3691 108.629H330.698C360.725 108.629 385.067 84.3194 385.067 54.3316V54.2977C385.067 24.3099 360.725 0 330.698 0Z" fill="#FF0000"/>
<g clip-path="url(#clip0_205_151)">
<path d="M94.2176 44.4495C93.9296 45.6697 93.6416 46.8257 93.2895 47.8853C92.9695 48.9449 92.5855 49.9725 92.1374 50.9358C93.5136 52.4128 94.8577 53.9862 96.1699 55.6559C97.482 57.3257 98.6341 59.0275 99.6262 60.7293C99.7542 60.922 99.7862 61.1147 99.6902 61.2752C99.5942 61.4358 99.4982 61.5642 99.4022 61.6926C99.2422 61.8532 99.0182 62.0137 98.7301 62.1743C98.4421 62.3348 98.1861 62.4633 97.9941 62.4954C97.802 62.5917 97.61 62.6238 97.482 62.5275C97.354 62.4312 97.194 62.2706 97.066 62.0137C96.2339 60.5688 95.3378 59.1238 94.3137 57.6789C93.2895 56.2339 92.1694 54.8211 90.9853 53.4082C90.0252 55.2385 88.9051 56.9082 87.6889 58.4495C86.4728 59.9908 85.1287 61.4358 83.6885 62.8486C83.4645 63.0413 83.2725 63.2018 83.0804 63.266C82.9204 63.3303 82.6964 63.3624 82.4404 63.3945C81.9923 63.3303 81.6083 63.2018 81.2563 63.0092C81.0962 62.9449 81.0322 62.8486 81.0322 62.6559C81.0322 62.4633 81.0962 62.3027 81.2242 62.1743C82.2484 61.0504 83.2725 59.8303 84.2646 58.5137C85.2887 57.1972 86.2168 55.8486 87.0809 54.4036C87.945 52.9908 88.7131 51.5137 89.3531 50.0046C89.9932 48.4954 90.5372 46.9541 90.8893 45.4128C91.0493 44.8348 90.8893 44.3532 90.5052 44.0321C90.0252 43.6147 89.4811 43.3257 88.9051 43.1009C88.7131 43.0367 88.649 42.9082 88.649 42.7156C88.649 42.5229 88.681 42.2981 88.7771 42.1055C88.8731 41.9128 88.9691 41.7202 89.0971 41.5596C89.1611 41.4312 89.3531 41.3991 89.6091 41.4312C90.9853 41.6559 92.3934 42.2018 93.8016 43.0046C94.0256 43.133 94.1856 43.3257 94.2496 43.6147C94.3137 43.9036 94.3137 44.1605 94.2496 44.4174L94.2176 44.4495ZM108.587 51.8991C108.939 51.8991 109.291 51.8991 109.611 51.8027C109.931 51.7064 110.283 51.6743 110.603 51.6422C110.923 51.578 111.211 51.5459 111.532 51.5137C111.852 51.5137 112.14 51.4816 112.428 51.4816C112.812 51.4816 113.1 51.6101 113.26 51.867C113.452 52.1559 113.644 52.5092 113.836 52.9587C114.028 53.4082 114.124 53.8257 114.188 54.2752C114.252 54.5963 114.092 54.7248 113.74 54.6605C112.748 54.5 111.564 54.4358 110.219 54.4358H107.019V70.4587C107.019 70.8761 106.891 71.1651 106.635 71.2936C106.347 71.4862 106.059 71.6789 105.739 71.8073C105.419 71.9358 105.099 72.0321 104.747 72.0321C104.331 72.0321 104.139 71.8394 104.139 71.422V41.9449C104.139 41.5596 104.107 41.2064 104.011 40.9174C103.947 40.6284 103.755 40.3715 103.467 40.1789C103.083 39.8578 102.699 39.6009 102.315 39.3761C101.93 39.1514 101.514 38.9266 101.098 38.7339C100.906 38.6697 100.81 38.5413 100.842 38.3486C100.97 37.8991 101.162 37.4816 101.418 37.1605C101.482 37.0321 101.674 37 101.93 37.0321C102.763 37.2247 103.627 37.5137 104.523 37.8348C105.419 38.1559 106.219 38.5413 106.955 38.9908C107.211 39.1835 107.339 39.4403 107.307 39.7614C107.243 40.3394 107.211 40.9174 107.147 41.5596C107.083 42.2018 107.051 42.844 107.051 43.5183V51.9312H108.619L108.587 51.8991Z" fill="white"/>
<path d="M117.868 54.7569C117.868 54.4358 117.868 54.1789 117.836 53.922C117.836 53.6651 117.708 53.5046 117.484 53.3761C117.26 53.2477 117.004 53.1514 116.716 53.1192C116.428 53.055 116.172 53.0229 115.948 52.9908C115.691 52.9266 115.563 52.8303 115.563 52.6697C115.563 52.477 115.563 52.2202 115.595 51.9312C115.595 51.6422 115.659 51.4174 115.755 51.1926C115.82 51.0642 115.948 51 116.204 51C116.748 50.9358 117.42 50.9358 118.22 51C119.02 51.0642 119.788 51.1284 120.46 51.2247H124.748C124.908 51.2247 125.101 51.2247 125.261 51.1926V45.4449H121.612C121.26 45.4449 120.908 45.477 120.588 45.5413C120.268 45.6055 119.948 45.6697 119.596 45.7018C119.276 45.766 118.988 45.7981 118.7 45.8303C118.412 45.8303 118.124 45.8624 117.836 45.8624C117.452 45.8624 117.164 45.7339 117.004 45.477C116.556 44.8027 116.236 44 116.076 43.1009C116.012 42.7798 116.172 42.6514 116.524 42.7156C117.516 42.8761 118.668 42.9403 119.98 42.9403H124.268C124.748 42.9403 125.165 42.8119 125.549 42.5229C125.805 42.3303 126.157 42.3303 126.573 42.5229C126.861 42.6514 127.149 42.8119 127.469 42.9725C127.789 43.133 128.077 43.3257 128.365 43.5825C128.557 43.7752 128.653 44.0963 128.589 44.5137C128.525 44.9633 128.461 45.4449 128.397 46.0229C128.333 46.6009 128.237 47.1789 128.141 47.7569C128.045 48.3348 127.949 48.9128 127.853 49.4908C127.757 50.0688 127.661 50.5825 127.565 51.0321C127.981 51.0963 128.269 51.2569 128.461 51.578C128.589 51.8348 128.685 52.1238 128.781 52.477C128.845 52.7981 128.909 53.1514 128.909 53.4725C128.909 53.7293 128.749 53.8578 128.461 53.8578C127.885 53.8578 127.309 53.8257 126.733 53.7936C126.157 53.7936 125.549 53.7936 124.876 53.7936H120.62C120.62 54.211 120.62 54.6284 120.62 55.0137C120.62 55.4312 120.62 55.8165 120.62 56.1697V59.5092C120.62 59.8624 120.684 60.0871 120.812 60.2156C120.94 60.3119 121.196 60.3761 121.58 60.3761C123.18 60.3761 124.844 60.2477 126.509 60.0229C128.173 59.7981 129.837 59.5092 131.501 59.1238C131.629 59.0596 131.757 59.1238 131.853 59.1881C131.949 59.2844 132.013 59.4128 132.013 59.5734C132.013 60.0229 131.949 60.4725 131.821 60.922C131.757 61.0183 131.693 61.1147 131.565 61.1468C131.437 61.211 131.341 61.2431 131.245 61.3073C129.517 61.8211 127.949 62.2385 126.477 62.5275C125.004 62.8486 123.532 63.0734 121.996 63.266C121.74 63.266 121.484 63.266 121.196 63.266C120.94 63.266 120.652 63.1697 120.396 63.0734C119.948 62.8807 119.5 62.6238 119.116 62.3348C118.732 62.0459 118.412 61.7247 118.188 61.4036C117.996 61.0825 117.868 60.6972 117.868 60.2477V54.789V54.7569ZM137.966 67.7293C137.966 68.1468 137.838 68.4358 137.582 68.5642C137.294 68.7569 137.006 68.9495 136.686 69.078C136.366 69.2064 136.046 69.3027 135.694 69.3027C135.278 69.3027 135.086 69.1101 135.086 68.6926V56.9082H134.926C134.574 56.9082 134.221 56.9403 133.901 57.0046C133.581 57.0688 133.229 57.133 132.909 57.1651C132.589 57.2293 132.301 57.2614 131.981 57.2936C131.661 57.2936 131.373 57.3257 131.085 57.3257C130.701 57.3257 130.413 57.1972 130.253 56.9403C130.061 56.6514 129.869 56.3303 129.677 55.9128C129.485 55.5275 129.389 55.1101 129.325 54.6605C129.261 54.3394 129.421 54.211 129.773 54.2752C130.765 54.4358 131.949 54.5 133.293 54.5H135.054V49.6835C134.734 49.6835 134.382 49.7477 134.061 49.8119C133.741 49.8761 133.421 49.9082 133.133 49.9725C132.813 50.0367 132.525 50.0688 132.205 50.1009C131.885 50.1009 131.597 50.133 131.309 50.133C130.925 50.133 130.637 50.0046 130.477 49.7477C130.285 49.4587 130.093 49.1376 129.901 48.7202C129.709 48.3348 129.613 47.9174 129.549 47.4679C129.485 47.1468 129.645 47.0183 129.997 47.0825C130.989 47.2431 132.173 47.3073 133.517 47.3073H135.022V43.8715C135.022 43.4862 134.99 43.133 134.894 42.844C134.83 42.555 134.638 42.2981 134.349 42.1055C133.965 41.7844 133.581 41.5275 133.197 41.3027C132.813 41.078 132.397 40.8532 131.981 40.6605C131.789 40.5963 131.693 40.4679 131.725 40.2752C131.853 39.8257 132.045 39.4082 132.301 39.0871C132.365 38.9587 132.557 38.9266 132.813 38.9587C133.645 39.1514 134.51 39.4403 135.406 39.7614C136.302 40.0825 137.102 40.4679 137.838 40.9174C138.094 41.1101 138.222 41.367 138.19 41.6881C138.126 42.266 138.094 42.844 138.03 43.4862C137.966 44.1284 137.934 44.7706 137.934 45.4449V67.7614L137.966 67.7293ZM141.454 41.9449C141.454 41.5596 141.422 41.2064 141.326 40.9174C141.262 40.6284 141.07 40.3715 140.782 40.1789C140.398 39.8578 140.014 39.6009 139.63 39.3761C139.246 39.1514 138.83 38.9266 138.414 38.7339C138.222 38.6697 138.126 38.5413 138.158 38.3486C138.286 37.8991 138.478 37.4816 138.734 37.1605C138.798 37.0321 138.99 37 139.246 37.0321C140.078 37.2247 140.942 37.5137 141.838 37.8348C142.734 38.1559 143.534 38.5413 144.271 38.9908C144.527 39.1835 144.655 39.4403 144.623 39.7614C144.559 40.3394 144.527 40.9174 144.463 41.5596C144.399 42.2018 144.367 42.844 144.367 43.5183V70.4587C144.367 70.8761 144.239 71.1651 143.983 71.2936C143.695 71.4862 143.406 71.6789 143.086 71.8073C142.766 71.9358 142.446 72.0321 142.094 72.0321C141.678 72.0321 141.486 71.8394 141.486 71.422V41.9449H141.454Z" fill="white"/>
<path d="M167.025 58.0963C167.025 58.4495 167.089 58.6743 167.217 58.8027C167.345 58.8991 167.601 58.9633 167.985 58.9633C168.785 58.9633 169.714 58.9312 170.77 58.8348C171.826 58.7385 172.946 58.6101 174.13 58.4816C175.314 58.3532 176.498 58.1605 177.714 57.9679C178.931 57.7752 180.115 57.5825 181.235 57.3578C181.555 57.2936 181.747 57.4541 181.747 57.8073C181.747 58.2569 181.683 58.7064 181.555 59.1559C181.491 59.2523 181.427 59.3486 181.299 59.4128C181.171 59.477 181.075 59.5092 180.979 59.5413C178.674 60.1192 176.498 60.633 174.482 61.0183C172.466 61.4036 170.386 61.6926 168.273 61.8853C168.017 61.8853 167.761 61.8853 167.473 61.8853C167.217 61.8853 166.929 61.789 166.673 61.6926C166.225 61.5 165.777 61.2431 165.393 60.9541C165.009 60.6651 164.689 60.344 164.465 60.0229C164.273 59.7018 164.145 59.3165 164.145 58.867V46.8899C164.145 46.5688 164.145 46.3119 164.113 46.055C164.113 45.7981 163.985 45.6055 163.761 45.5092C163.505 45.3807 163.217 45.2844 162.929 45.2202C162.641 45.1559 162.353 45.1238 162.065 45.0917C161.809 45.0917 161.681 44.9954 161.681 44.7706C161.681 44.3211 161.745 43.8073 161.873 43.2936C161.937 43.1651 162.065 43.1009 162.321 43.1009C162.865 43.0367 163.569 43.0688 164.401 43.1009C165.233 43.133 166.033 43.2614 166.737 43.3578H172.85C173.17 43.3578 173.49 43.3578 173.81 43.2936C174.13 43.2293 174.45 43.1972 174.77 43.133C175.09 43.0688 175.378 43.0367 175.698 43.0046C176.018 43.0046 176.306 42.9725 176.594 42.9725C176.754 42.9725 176.882 42.9725 177.042 43.0367C177.202 43.1009 177.298 43.1651 177.394 43.2936C177.65 43.6147 177.842 44 178.002 44.4495C178.162 44.8991 178.258 45.2844 178.322 45.6697C178.386 45.9908 178.226 46.1192 177.906 46.055C176.85 45.8945 175.666 45.8303 174.322 45.8303H167.025C167.025 46.2156 166.993 46.6009 167.025 46.9862C167.057 47.3715 167.025 47.7569 167.025 48.1101V58.0963ZM187.507 50.8073H188.98C189.332 50.8073 189.684 50.8073 190.004 50.711C190.324 50.6147 190.676 50.5825 190.996 50.5504C191.316 50.4862 191.604 50.4541 191.924 50.422C192.244 50.422 192.532 50.3899 192.82 50.3899C193.204 50.3899 193.492 50.5183 193.652 50.7752C193.844 51.0642 194.036 51.4174 194.228 51.867C194.42 52.3165 194.516 52.7339 194.58 53.1835C194.644 53.5046 194.484 53.633 194.132 53.5688C193.14 53.4082 191.956 53.344 190.612 53.344H187.539V70.4587C187.539 70.8761 187.411 71.1651 187.155 71.2936C186.867 71.4862 186.579 71.6789 186.259 71.8073C185.939 71.9358 185.619 72.0321 185.267 72.0321C184.851 72.0321 184.659 71.8394 184.659 71.422V41.9449C184.659 41.5596 184.627 41.2064 184.531 40.9174C184.467 40.6284 184.275 40.3715 183.987 40.1789C183.603 39.8578 183.219 39.6009 182.835 39.3761C182.451 39.1514 182.035 38.9266 181.619 38.7339C181.427 38.6697 181.331 38.5413 181.363 38.3486C181.491 37.8991 181.683 37.4816 181.939 37.1605C182.003 37.0321 182.195 37 182.451 37.0321C183.283 37.2247 184.147 37.5137 185.043 37.8348C185.939 38.1559 186.739 38.5413 187.475 38.9908C187.731 39.1835 187.859 39.4403 187.827 39.7614C187.763 40.3394 187.731 40.9174 187.667 41.5596C187.603 42.2018 187.571 42.844 187.571 43.5183V50.8394L187.507 50.8073Z" fill="white"/>
<path d="M209.878 44.4495C209.333 46.8578 208.629 49.0413 207.765 50.9679C209.205 52.4128 210.614 53.9862 211.958 55.6559C213.334 57.3578 214.518 59.0596 215.542 60.7293C215.67 60.922 215.702 61.1147 215.606 61.2752C215.51 61.4358 215.414 61.5642 215.318 61.6926C215.158 61.8532 214.934 62.0137 214.646 62.1743C214.358 62.3348 214.102 62.4633 213.91 62.4954C213.718 62.5917 213.526 62.6238 213.398 62.5275C213.27 62.4312 213.11 62.2706 212.982 62.0137C212.15 60.5367 211.19 59.0917 210.07 57.6147C208.949 56.1376 207.765 54.7247 206.517 53.3119C205.493 55.1743 204.341 56.844 203.093 58.3853C201.845 59.9266 200.469 61.4037 199.028 62.8486C198.804 63.0413 198.612 63.2018 198.42 63.266C198.26 63.3303 198.036 63.3624 197.78 63.3945C197.332 63.3303 196.948 63.2018 196.596 63.0092C196.436 62.9449 196.372 62.8486 196.372 62.6559C196.372 62.4633 196.436 62.3027 196.564 62.1743C197.588 61.0504 198.612 59.8303 199.668 58.5137C200.693 57.1972 201.685 55.8486 202.581 54.4036C203.477 52.9908 204.277 51.5137 204.949 50.0046C205.653 48.4954 206.165 46.9541 206.517 45.4128C206.677 44.8348 206.517 44.3532 206.133 44.0321C205.653 43.6147 205.109 43.3257 204.533 43.1009C204.341 43.0367 204.277 42.9082 204.277 42.7156C204.277 42.5229 204.309 42.2981 204.405 42.1055C204.501 41.9128 204.597 41.7202 204.725 41.5596C204.789 41.4312 204.981 41.3991 205.237 41.4312C206.613 41.6559 208.021 42.2018 209.429 43.0046C209.654 43.133 209.814 43.3257 209.878 43.6147C209.942 43.9036 209.942 44.1605 209.878 44.4174V44.4495ZM220.983 41.9449C220.983 41.5596 220.951 41.2064 220.855 40.9174C220.791 40.6284 220.599 40.3715 220.311 40.1789C219.927 39.8578 219.543 39.6009 219.159 39.3761C218.774 39.1514 218.358 38.9266 217.942 38.7339C217.75 38.6697 217.654 38.5413 217.686 38.3486C217.814 37.8991 218.006 37.4816 218.262 37.1605C218.326 37.0321 218.518 37 218.774 37.0321C219.607 37.2247 220.471 37.5137 221.367 37.8348C222.263 38.1559 223.063 38.5413 223.799 38.9908C224.055 39.1835 224.183 39.4403 224.151 39.7614C224.087 40.3394 224.055 40.9174 223.991 41.5596C223.927 42.2018 223.895 42.844 223.895 43.5183V70.4587C223.895 70.8761 223.767 71.1651 223.511 71.2936C223.223 71.4862 222.935 71.6789 222.615 71.8073C222.295 71.9358 221.975 72.0321 221.623 72.0321C221.207 72.0321 221.015 71.8394 221.015 71.422V41.9449H220.983Z" fill="white"/>
<path d="M246.33 66.9907C245.978 66.9907 245.626 67.0228 245.306 67.087C244.986 67.1512 244.666 67.2155 244.314 67.2476C243.994 67.3118 243.706 67.3439 243.418 67.376C243.13 67.376 242.842 67.4081 242.553 67.4081C242.169 67.4081 241.881 67.2797 241.721 67.0228C241.497 66.7017 241.305 66.3164 241.177 65.8989C241.049 65.4815 240.921 65.0641 240.825 64.6145C240.761 64.2934 240.889 64.165 241.273 64.2292C242.265 64.3898 243.482 64.454 244.89 64.454H255.899V57.6466H250.682C250.618 57.9999 250.49 58.2567 250.298 58.3852C250.01 58.5778 249.722 58.7705 249.402 58.8989C249.082 59.0274 248.762 59.1237 248.41 59.1237C247.994 59.1237 247.802 58.931 247.802 58.5136V45.1558C247.802 44.8347 247.802 44.5778 247.77 44.321C247.77 44.0641 247.578 43.8714 247.322 43.743C246.682 43.4219 246.106 43.1971 245.562 43.0366C245.37 42.9723 245.242 42.9081 245.178 42.7797C245.178 42.587 245.21 42.3622 245.274 42.1054C245.338 41.8485 245.402 41.6237 245.498 41.431C245.594 41.3347 245.754 41.2705 245.946 41.2705C246.682 41.2705 247.482 41.3668 248.314 41.5274C249.146 41.6879 249.914 41.9127 250.65 42.2017C250.938 42.298 251.034 42.5549 251.002 42.9723C250.938 43.2292 250.906 43.5503 250.874 43.9035C250.874 44.2888 250.81 44.6742 250.81 45.0916C250.81 45.509 250.778 45.9265 250.746 46.3439C250.746 46.7613 250.746 47.1466 250.746 47.4677H264.06V44.1925C264.06 43.8714 263.996 43.5824 263.9 43.3255C263.804 43.0687 263.644 42.8439 263.388 42.6512C263.068 42.4586 262.78 42.2659 262.492 42.1375C262.204 42.009 261.916 41.8485 261.596 41.6879C261.404 41.6237 261.339 41.4953 261.339 41.3026C261.404 40.8531 261.532 40.4677 261.788 40.1145C261.884 39.9861 262.076 39.9219 262.332 39.954C263.068 40.0503 263.836 40.2109 264.604 40.4035C265.372 40.5962 266.108 40.8852 266.844 41.2384C267.132 41.3668 267.228 41.6237 267.196 42.009C267.132 42.587 267.068 43.165 267.004 43.8072C266.94 44.4494 266.94 45.0916 266.94 45.7659V57.1971C266.94 57.6145 266.812 57.9035 266.556 58.032C266.268 58.2246 265.98 58.4173 265.66 58.5457C265.34 58.6742 265.02 58.7705 264.668 58.7705C264.252 58.7705 264.06 58.5778 264.06 58.1604V57.7109H258.907V64.5182H268.188C268.54 64.5182 268.892 64.4861 269.244 64.4219C269.596 64.3577 269.916 64.2934 270.268 64.2613C270.588 64.1971 270.941 64.165 271.261 64.1329C271.581 64.1008 271.869 64.1008 272.157 64.1008C272.605 64.1008 272.893 64.2292 273.053 64.4861C273.277 64.8393 273.469 65.2246 273.661 65.6742C273.821 66.0916 273.949 66.509 274.077 66.8944C274.141 67.2155 274.013 67.3439 273.629 67.2797C272.541 67.1191 271.293 67.0549 269.82 67.0549H246.426L246.33 66.9907ZM250.682 55.1742H263.996V49.9081H250.682V55.1742Z" fill="white"/>
<path d="M294.399 44.9313C293.695 46.9221 292.831 48.8487 291.806 50.6469C290.782 52.4451 289.63 54.1148 288.382 55.6561C287.134 57.1973 285.854 58.6102 284.478 59.8625C283.134 61.1148 281.789 62.2386 280.445 63.1698C280.253 63.2983 280.029 63.3946 279.837 63.4909C279.645 63.5873 279.421 63.5551 279.229 63.4267C278.973 63.3625 278.749 63.2662 278.525 63.1377C278.301 63.0093 278.109 62.8487 277.917 62.7203C277.757 62.5918 277.693 62.4313 277.757 62.2707C277.789 62.1102 277.885 61.9817 278.045 61.8533C279.293 60.8579 280.573 59.7662 281.821 58.5781C283.102 57.39 284.286 56.1377 285.406 54.7891C286.526 53.4405 287.55 51.9955 288.51 50.4863C289.438 48.9772 290.206 47.4038 290.846 45.7983H283.774C283.422 45.7983 283.07 45.7983 282.749 45.8625C282.429 45.8946 282.109 45.9588 281.757 45.9909C281.437 46.0551 281.149 46.0873 280.861 46.1194C280.573 46.1194 280.285 46.1515 279.997 46.1515C279.805 46.1515 279.645 46.1515 279.517 46.0551C279.389 45.9588 279.293 45.8946 279.165 45.7662C278.877 45.4451 278.653 45.1239 278.493 44.7707C278.333 44.4175 278.205 44.0001 278.077 43.4863C278.013 43.2295 278.173 43.101 278.525 43.1331C279.037 43.1973 279.549 43.2616 280.029 43.2616C280.509 43.2616 281.053 43.2616 281.629 43.2616H289.918C290.206 43.2616 290.462 43.2295 290.75 43.1331C291.038 43.0368 291.262 42.9405 291.454 42.812C291.742 42.6194 292.094 42.6194 292.479 42.812C293.087 43.101 293.663 43.5184 294.207 44.0322C294.431 44.257 294.495 44.546 294.367 44.835L294.399 44.9313ZM300.863 41.9772C300.863 41.5918 300.831 41.2386 300.735 40.9496C300.671 40.6606 300.479 40.4038 300.191 40.2111C299.807 39.89 299.423 39.6331 299.039 39.4084C298.655 39.1836 298.239 38.9588 297.823 38.7662C297.631 38.7019 297.535 38.5735 297.567 38.3808C297.695 37.9313 297.887 37.5139 298.143 37.1928C298.207 37.0643 298.399 37.0322 298.655 37.0643C299.487 37.257 300.351 37.546 301.247 37.8671C302.144 38.1882 302.944 38.5735 303.68 39.023C303.936 39.2157 304.064 39.4726 304.032 39.7937C303.968 40.3717 303.936 40.9496 303.872 41.5918C303.808 42.234 303.776 42.8762 303.776 43.5506V70.4909C303.776 70.9084 303.648 71.1973 303.392 71.3258C303.104 71.5184 302.816 71.7111 302.496 71.8395C302.176 71.968 301.856 72.0643 301.504 72.0643C301.087 72.0643 300.895 71.8717 300.895 71.4542V41.945L300.863 41.9772Z" fill="white"/>
</g>
<defs>
<clipPath id="clip0_205_151">
<rect width="223" height="35" fill="white" transform="translate(81 37)"/>
</clipPath>
</defs>
</svg>
