<svg width="386" height="109" viewBox="0 0 386 109" fill="none" xmlns="http://www.w3.org/2000/svg">
<path d="M330.698 0H54.3691C24.3419 0 0 24.3099 0 54.2977V54.3316C0 84.3194 24.3419 108.629 54.3691 108.629H330.698C360.725 108.629 385.067 84.3194 385.067 54.3316V54.2977C385.067 24.3099 360.725 0 330.698 0Z" fill="#FF0000"/>
<g clip-path="url(#clip0_205_161)">
<path d="M82.8286 46.4548C82.8286 46.1493 82.7947 45.8778 82.7609 45.6402C82.7609 45.4025 82.6254 45.1989 82.4222 45.0631C82.1851 44.8594 81.8464 44.7236 81.44 44.6557C81.1691 44.5879 81.0336 44.486 81.0336 44.3163C81.0336 44.1126 80.9997 43.875 81.0336 43.6035C81.0336 43.3319 81.0675 43.0943 81.1352 42.8906C81.2029 42.7548 81.3384 42.6869 81.6094 42.6869C82.1512 42.6869 82.7609 42.6869 83.4721 42.6869C84.1494 42.7209 84.8606 42.8227 85.538 42.9924H91.8712C92.3792 42.9924 92.8195 42.8567 93.2259 42.5512C93.4969 42.3475 93.8694 42.3475 94.3097 42.5512C94.6145 42.6869 94.9193 42.8567 95.258 43.0264C95.5967 43.1961 95.9015 43.3998 96.2063 43.6713C96.3417 43.8071 96.4095 43.9429 96.4433 44.1126C96.4433 44.2824 96.4433 44.4521 96.4433 44.6557C96.4433 45.5383 96.3756 46.4548 96.3079 47.4053C96.274 48.3557 96.2063 49.3401 96.1385 50.3585C96.6804 50.4264 97.2562 50.4943 97.8658 50.5282C98.4754 50.5282 99.1189 50.5622 99.8301 50.5622H101.354V43.264C101.354 42.8567 101.32 42.4833 101.219 42.1778C101.151 41.8723 100.948 41.6007 100.643 41.397C100.237 41.0576 99.8301 40.786 99.4237 40.5484C99.0173 40.3108 98.577 40.0732 98.1367 39.8695C97.9335 39.8016 97.8319 39.6658 97.8658 39.4622C98.0013 38.9869 98.2045 38.5457 98.4754 38.2062C98.5431 38.0704 98.7463 38.0365 99.0173 38.0704C99.8978 38.2741 100.812 38.5796 101.761 38.919C102.709 39.2585 103.556 39.6658 104.334 40.1411C104.605 40.3447 104.741 40.6163 104.707 40.9557C104.639 41.5668 104.605 42.1778 104.538 42.8567C104.47 43.5356 104.436 44.2145 104.436 44.9273V68.5191C104.436 68.9603 104.301 69.2658 104.03 69.4016C103.725 69.6053 103.42 69.809 103.081 69.9447C102.743 70.0805 102.404 70.1824 102.031 70.1824C101.591 70.1824 101.388 69.9787 101.388 69.5374V53.2099C101.049 53.2099 100.677 53.2778 100.372 53.3457C100.033 53.4135 99.7285 53.4475 99.4237 53.5154C99.085 53.5833 98.7802 53.6172 98.4415 53.6512C98.1029 53.6512 97.798 53.6851 97.4932 53.6851C97.0868 53.6851 96.782 53.5493 96.5788 53.2778C96.5111 53.142 96.4095 53.0062 96.3079 52.8365C96.2063 52.6668 96.1385 52.531 96.0369 52.3613C95.9692 53.5493 95.8676 54.7035 95.766 55.8236C95.6644 56.9438 95.5289 57.9961 95.3934 58.9466C95.766 59.0145 96.0369 59.2181 96.2063 59.5236C96.3417 59.7952 96.4772 60.1007 96.5449 60.4741C96.6466 60.8135 96.6804 61.1869 96.6804 61.5264C96.6804 61.7979 96.5111 61.9337 96.2063 61.9337C95.5967 61.9337 94.987 61.8998 94.3774 61.8658C93.7678 61.8658 93.1243 61.8658 92.4131 61.8658H86.0799C86.0121 62.1713 85.8089 62.375 85.5041 62.4768C85.3009 62.5447 85.0638 62.6126 84.7929 62.6805C84.522 62.7484 84.2849 62.7484 84.0478 62.7145C83.5398 62.7145 83.2689 62.4429 83.2689 61.9677L82.8286 46.4888V46.4548ZM91.5664 59.1502H92.2776C92.5147 59.1502 92.7518 59.1502 92.9889 59.1163V45.6741H85.9444L86.1137 59.1502H91.5664ZM108.162 41.2273C108.162 40.82 108.128 40.4466 108.026 40.1411C107.958 39.8356 107.755 39.564 107.45 39.3603C107.044 39.0209 106.637 38.7493 106.231 38.5117C105.825 38.2741 105.384 38.0365 104.944 37.8328C104.741 37.7649 104.639 37.6291 104.673 37.4255C104.809 36.9502 105.012 36.509 105.283 36.1695C105.351 36.0337 105.554 35.9998 105.825 36.0337C106.705 36.2374 107.62 36.5429 108.568 36.8824C109.516 37.2218 110.363 37.6291 111.142 38.1044C111.413 38.308 111.548 38.5796 111.514 38.919C111.447 39.5301 111.413 40.1411 111.345 40.82C111.277 41.4989 111.243 42.1778 111.243 42.8906V71.3704C111.243 71.8117 111.108 72.1172 110.837 72.253C110.532 72.4567 110.227 72.6603 109.889 72.7961C109.55 72.9319 109.211 73.0337 108.839 73.0337C108.399 73.0337 108.195 72.8301 108.195 72.3888V41.2273H108.162Z" fill="white"/>
<path d="M136.339 48.2541C136.339 49.4422 136.136 50.5624 135.73 51.6147C135.323 52.667 134.748 53.5835 133.969 54.3642C133.224 55.145 132.275 55.7899 131.192 56.2312C130.108 56.7064 128.855 56.9101 127.466 56.9101C126.078 56.9101 124.858 56.6725 123.741 56.2312C122.657 55.756 121.709 55.145 120.964 54.3642C120.218 53.5835 119.609 52.667 119.202 51.6147C118.796 50.5624 118.593 49.4422 118.593 48.2541C118.593 47.0661 118.796 45.9798 119.202 44.9275C119.609 43.8752 120.185 42.9587 120.964 42.1441C121.709 41.3633 122.657 40.7184 123.741 40.2771C124.824 39.8358 126.078 39.5982 127.466 39.5982C128.855 39.5982 130.074 39.8358 131.192 40.2771C132.275 40.7523 133.224 41.3633 133.969 42.1441C134.714 42.9248 135.323 43.8413 135.73 44.9275C136.136 45.9798 136.339 47.1 136.339 48.2541ZM133.291 48.2541C133.291 47.4395 133.156 46.6587 132.919 45.9459C132.648 45.233 132.275 44.5881 131.767 44.045C131.259 43.5019 130.65 43.0606 129.938 42.7211C129.227 42.3817 128.414 42.2459 127.466 42.2459C126.518 42.2459 125.739 42.4156 124.994 42.7211C124.283 43.0606 123.673 43.5019 123.165 44.045C122.657 44.5881 122.284 45.233 122.013 45.9459C121.742 46.6587 121.641 47.4395 121.641 48.2541C121.641 49.0688 121.776 49.8496 122.013 50.5624C122.284 51.2752 122.657 51.9202 123.165 52.4633C123.673 53.0064 124.283 53.4477 124.994 53.7872C125.705 54.1266 126.518 54.2624 127.466 54.2624C128.414 54.2624 129.193 54.0927 129.938 53.7872C130.65 53.4477 131.259 53.0064 131.767 52.4633C132.275 51.9202 132.648 51.2752 132.919 50.5624C133.19 49.8496 133.291 49.0688 133.291 48.2541ZM130.413 68.9606C130.413 69.3 130.48 69.5037 130.616 69.6055C130.751 69.7074 130.954 69.7752 131.259 69.7752H142.91C143.282 69.7752 143.655 69.7413 144.027 69.6734C144.4 69.6055 144.739 69.5376 145.111 69.5037C145.45 69.4358 145.822 69.4019 146.161 69.3679C146.5 69.3679 146.804 69.334 147.109 69.334C147.583 69.334 147.888 69.4697 148.058 69.7413C148.532 70.4881 148.87 71.3367 149.074 72.2532C149.141 72.5927 148.972 72.7285 148.599 72.6606C147.448 72.4908 146.127 72.423 144.569 72.423H131.632C131.293 72.423 130.921 72.423 130.582 72.3551C130.243 72.3211 129.905 72.2532 129.634 72.1853C128.787 71.9138 128.177 71.4725 127.805 70.8275C127.669 70.6239 127.568 70.3863 127.466 70.1486C127.364 69.911 127.331 69.6395 127.331 69.3679V64.8532C127.331 64.4459 127.297 64.0725 127.229 63.6991C127.161 63.3596 126.992 63.0881 126.721 62.8844C126.111 62.4092 125.4 62.0697 124.655 61.8661C124.452 61.7982 124.316 61.6963 124.316 61.5266C124.316 61.1193 124.384 60.7459 124.553 60.4404C124.621 60.2707 124.824 60.2028 125.095 60.2028C125.874 60.2707 126.721 60.3725 127.635 60.5422C128.55 60.7119 129.43 60.9496 130.311 61.2211C130.616 61.323 130.717 61.5945 130.683 62.0358C130.616 62.8165 130.548 63.6652 130.48 64.5138C130.413 65.3963 130.413 66.2789 130.413 67.2294V68.9266V68.9606ZM143.248 41.2615C143.248 40.8541 143.214 40.4808 143.113 40.1752C143.045 39.8697 142.842 39.5982 142.537 39.3945C142.131 39.0551 141.724 38.7835 141.318 38.5459C140.911 38.3083 140.471 38.0707 140.031 37.867C139.828 37.7991 139.726 37.6633 139.76 37.4597C139.895 36.9844 140.099 36.5431 140.37 36.2037C140.437 36.0679 140.641 36.034 140.911 36.0679C141.792 36.2716 142.706 36.5771 143.655 36.9165C144.603 37.256 145.45 37.6633 146.229 38.1385C146.5 38.3422 146.635 38.6138 146.601 38.9532C146.534 39.5642 146.5 40.1752 146.432 40.8541C146.364 41.533 146.33 42.2119 146.33 42.9248V62.2395C146.33 62.6808 146.195 62.9863 145.924 63.122C145.619 63.3257 145.314 63.5294 144.976 63.6652C144.637 63.8009 144.298 63.9028 143.926 63.9028C143.485 63.9028 143.282 63.6991 143.282 63.2578V41.2275L143.248 41.2615Z" fill="white"/>
<path d="M159.031 67.2971C158.659 67.2971 158.286 67.331 157.948 67.3989C157.609 67.4668 157.27 67.5347 156.898 67.5686C156.559 67.6365 156.254 67.6705 155.949 67.7044C155.645 67.7044 155.34 67.7383 155.035 67.7383C154.629 67.7383 154.324 67.6026 154.154 67.331C153.917 66.9916 153.714 66.5842 153.579 66.1429C153.443 65.7016 153.308 65.2604 153.206 64.7851C153.138 64.4457 153.274 64.3099 153.68 64.3778C154.73 64.5475 156.017 64.6154 157.507 64.6154H182.129C182.502 64.6154 182.874 64.5815 183.247 64.5136C183.619 64.4457 183.958 64.3778 184.33 64.3438C184.669 64.276 185.042 64.242 185.38 64.2081C185.719 64.2081 186.024 64.1741 186.329 64.1741C186.803 64.1741 187.108 64.3099 187.277 64.5815C187.514 64.9549 187.717 65.3622 187.92 65.8374C188.09 66.2787 188.225 66.72 188.361 67.1273C188.428 67.4668 188.293 67.6026 187.886 67.5347C186.735 67.3649 185.414 67.2971 183.856 67.2971H159.099H159.031ZM180.707 49.5099C180.707 50.7998 180.469 51.9879 179.961 53.1081C179.453 54.2283 178.776 55.2127 177.896 56.0613C177.015 56.9099 175.931 57.5549 174.712 58.064C173.493 58.5393 172.138 58.8108 170.682 58.8108C169.225 58.8108 167.871 58.5732 166.652 58.064C165.432 57.5888 164.349 56.9099 163.468 56.0613C162.587 55.2127 161.876 54.2283 161.402 53.1081C160.928 51.9879 160.657 50.7659 160.657 49.5099C160.657 48.2539 160.894 47.0319 161.402 45.9117C161.91 44.7916 162.587 43.8071 163.468 42.9585C164.349 42.1099 165.432 41.4649 166.652 40.9558C167.871 40.4805 169.225 40.209 170.682 40.209C172.138 40.209 173.493 40.4466 174.712 40.9558C175.931 41.431 177.015 42.1099 177.896 42.9585C178.776 43.8071 179.487 44.7916 179.961 45.9117C180.436 47.0319 180.707 48.2539 180.707 49.5099ZM177.658 49.5099C177.658 48.5934 177.489 47.7108 177.117 46.9301C176.778 46.1154 176.27 45.4365 175.66 44.8255C175.051 44.2145 174.306 43.7393 173.459 43.3998C172.578 43.0604 171.664 42.8567 170.648 42.8567C169.632 42.8567 168.684 43.0264 167.837 43.3998C166.99 43.7732 166.245 44.2145 165.635 44.8255C165.026 45.4365 164.552 46.1154 164.179 46.9301C163.807 47.7448 163.637 48.5934 163.637 49.5099C163.637 50.4264 163.807 51.309 164.179 52.0897C164.518 52.9044 165.026 53.5833 165.635 54.1943C166.245 54.8053 166.99 55.2805 167.837 55.62C168.684 55.9594 169.632 56.1631 170.648 56.1631C171.664 56.1631 172.578 55.9934 173.459 55.62C174.339 55.2805 175.051 54.8053 175.66 54.1943C176.27 53.5833 176.744 52.9044 177.117 52.0897C177.455 51.275 177.658 50.4264 177.658 49.5099Z" fill="white"/>
<path d="M194.524 67.8063C194.185 67.8742 193.846 67.9421 193.474 67.976C193.135 68.0439 192.83 68.0779 192.526 68.1118C192.221 68.1118 191.916 68.1458 191.611 68.1458C191.205 68.1458 190.9 68.01 190.731 67.7384C190.493 67.399 190.29 66.9916 190.155 66.5504C190.019 66.1091 189.884 65.6678 189.782 65.1926C189.715 64.8531 189.85 64.7173 190.256 64.7852C191.306 64.9549 192.593 65.0228 194.083 65.0228H205.734V58.9467H201.297C200.959 58.9467 200.586 58.9467 200.247 58.8788C199.909 58.8448 199.57 58.777 199.299 58.7091C198.452 58.4375 197.843 57.9962 197.47 57.3513C197.335 57.1476 197.233 56.91 197.132 56.6724C197.03 56.4348 196.996 56.1632 196.996 55.8916V51.5127C196.928 51.1054 196.793 50.8338 196.59 50.6981C196.386 50.5623 196.149 50.4604 195.878 50.3926C195.607 50.3247 195.37 50.2907 195.167 50.2568C194.896 50.1889 194.761 50.087 194.761 49.9173C194.761 49.7137 194.761 49.476 194.761 49.2045C194.761 48.9669 194.795 48.7292 194.862 48.5256C194.93 48.3898 195.066 48.3219 195.337 48.3219C195.912 48.254 196.59 48.254 197.402 48.3219C198.215 48.3898 198.994 48.4237 199.705 48.4916H212.541C212.711 48.4916 212.914 48.4916 213.083 48.4577V43.6036H201.026C200.654 43.6036 200.281 43.6036 199.943 43.7054C199.604 43.7733 199.265 43.8412 198.893 43.8751C198.554 43.943 198.249 43.977 197.944 44.0109C197.64 44.0109 197.335 44.0448 197.03 44.0448C196.624 44.0448 196.319 43.9091 196.149 43.6375C195.675 42.9247 195.337 42.076 195.167 41.1256C195.099 40.7861 195.269 40.6503 195.641 40.7182C196.691 40.888 197.91 40.9559 199.299 40.9559H212.169C212.677 40.9559 213.117 40.8201 213.523 40.5146C213.794 40.3109 214.167 40.3109 214.607 40.5146C214.912 40.6503 215.217 40.8201 215.522 40.9898C215.826 41.1595 216.131 41.3632 216.436 41.6348C216.639 41.8384 216.741 42.1779 216.673 42.6192C216.571 43.5357 216.436 44.4861 216.334 45.5045C216.199 46.4889 216.063 47.4393 215.86 48.288C216.334 48.288 216.639 48.4916 216.842 48.865C217.147 49.4081 217.283 50.087 217.283 50.8338C217.283 51.1054 217.113 51.2412 216.809 51.2412C216.199 51.2412 215.522 51.2072 214.844 51.1733C214.167 51.1733 213.49 51.1733 212.778 51.1733H199.976V55.5861C199.976 55.8916 200.044 56.0953 200.18 56.1971C200.315 56.299 200.518 56.3669 200.823 56.3669H212.575C212.948 56.3669 213.32 56.3669 213.693 56.265C214.065 56.1632 214.404 56.1292 214.777 56.0953C215.115 56.0274 215.488 55.9935 215.826 55.9595C216.165 55.9595 216.47 55.9256 216.775 55.9256C217.249 55.9256 217.554 56.0614 217.723 56.3329C217.926 56.7063 218.129 57.1476 218.333 57.5889C218.536 58.0641 218.671 58.4715 218.739 58.8448C218.807 59.1843 218.671 59.3201 218.265 59.2522C217.113 59.0825 215.793 59.0146 214.235 59.0146H208.782V65.0907H218.604C218.976 65.0907 219.349 65.0568 219.721 64.9889C220.094 64.921 220.432 64.8531 220.805 64.8192C221.144 64.7513 221.516 64.7173 221.855 64.6834C222.194 64.6494 222.498 64.6494 222.803 64.6494C223.277 64.6494 223.582 64.7852 223.751 65.0568C223.988 65.4302 224.192 65.8375 224.395 66.3127C224.564 66.754 224.7 67.1953 224.835 67.6026C224.903 67.9421 224.767 68.0779 224.361 68.01C223.21 67.8403 221.889 67.7724 220.331 67.7724H195.574C195.201 67.7724 194.829 67.8063 194.49 67.8742L194.524 67.8063Z" fill="white"/>
<path d="M257.45 44.3842C256.704 46.4888 255.79 48.5255 254.706 50.4264C253.623 52.3273 252.403 54.0924 251.082 55.7218C249.762 57.3512 248.407 58.8447 246.951 60.1686C245.528 61.4924 244.106 62.6805 242.683 63.6649C242.48 63.8007 242.243 63.9025 242.04 64.0044C241.837 64.1062 241.6 64.0723 241.396 63.9365C241.125 63.8686 240.888 63.7668 240.651 63.631C240.448 63.4952 240.211 63.3255 240.008 63.1897C239.838 63.0539 239.771 62.8842 239.838 62.7145C239.872 62.5447 239.974 62.409 240.143 62.2732C241.464 61.2209 242.819 60.0668 244.14 58.8108C245.494 57.5548 246.747 56.231 247.933 54.8053C249.118 53.3796 250.202 51.8521 251.218 50.2567C252.2 48.6613 253.013 46.9979 253.69 45.3007H246.206C245.833 45.3007 245.46 45.3007 245.122 45.3686C244.783 45.4025 244.444 45.4704 244.072 45.5044C243.733 45.5723 243.428 45.6062 243.124 45.6402C242.819 45.6402 242.514 45.6741 242.209 45.6741C242.006 45.6741 241.837 45.6741 241.701 45.5723C241.566 45.5044 241.464 45.4025 241.329 45.2668C241.024 44.9273 240.787 44.5879 240.617 44.2145C240.448 43.8411 240.313 43.3998 240.177 42.8567C240.109 42.5851 240.279 42.4493 240.651 42.4833C241.193 42.5512 241.735 42.619 242.243 42.619C242.751 42.619 243.327 42.619 243.936 42.619H252.708C253.013 42.619 253.284 42.5851 253.589 42.4833C253.893 42.3814 254.131 42.2796 254.334 42.1438C254.639 41.9402 255.011 41.9402 255.418 42.1438C256.061 42.4493 256.671 42.8906 257.246 43.4337C257.483 43.6713 257.551 43.9768 257.416 44.2824L257.45 44.3842ZM266.018 51.5126H267.576C267.949 51.5126 268.321 51.4787 268.66 51.4108C268.998 51.3429 269.371 51.275 269.71 51.2411C270.048 51.1732 270.353 51.1392 270.692 51.1053C271.03 51.1053 271.335 51.0713 271.64 51.0713C272.046 51.0713 272.351 51.2071 272.521 51.4787C272.724 51.7842 272.927 52.1576 273.13 52.6328C273.333 53.108 273.435 53.5493 273.503 54.0246C273.571 54.364 273.401 54.4998 273.029 54.4319C271.979 54.2622 270.726 54.1943 269.303 54.1943H266.052V71.3704C266.052 71.8117 265.916 72.1172 265.646 72.253C265.341 72.4567 265.036 72.6603 264.697 72.7961C264.359 72.9319 264.02 73.0337 263.647 73.0337C263.207 73.0337 263.004 72.8301 263.004 72.3888V41.2273C263.004 40.82 262.97 40.4466 262.868 40.1411C262.801 39.8356 262.597 39.564 262.293 39.3603C261.886 39.0209 261.48 38.7493 261.073 38.5117C260.667 38.2741 260.227 38.0365 259.786 37.8328C259.583 37.7649 259.482 37.6291 259.515 37.4255C259.651 36.9502 259.854 36.509 260.125 36.1695C260.193 36.0337 260.396 35.9998 260.667 36.0337C261.548 36.2374 262.462 36.5429 263.41 36.8824C264.359 37.2218 265.205 37.6291 265.984 38.1044C266.255 38.308 266.391 38.5796 266.357 38.919C266.289 39.5301 266.255 40.1411 266.187 40.82C266.12 41.4989 266.086 42.1778 266.086 42.8906V51.5126H266.018Z" fill="white"/>
<path d="M294.84 44.3844C294.095 46.489 293.181 48.5257 292.097 50.4266C291.013 52.3275 289.794 54.0927 288.473 55.722C287.152 57.3514 285.798 58.845 284.341 60.1688C282.919 61.4927 281.496 62.6808 280.074 63.6652C279.871 63.8009 279.634 63.9028 279.43 64.0046C279.227 64.1064 278.99 64.0725 278.787 63.9367C278.516 63.8688 278.279 63.767 278.042 63.6312C277.805 63.4954 277.602 63.3257 277.398 63.1899C277.229 63.0541 277.161 62.8844 277.229 62.7147C277.263 62.545 277.365 62.4092 277.534 62.2734C278.855 61.2211 280.209 60.067 281.53 58.811C282.885 57.5551 284.138 56.2312 285.323 54.8055C286.509 53.3798 287.593 51.8523 288.609 50.2569C289.591 48.6615 290.404 46.9982 291.081 45.3009H283.596C283.224 45.3009 282.851 45.3009 282.512 45.3688C282.174 45.4028 281.835 45.4707 281.463 45.5046C281.124 45.5725 280.819 45.6064 280.514 45.6404C280.209 45.6404 279.905 45.6743 279.6 45.6743C279.397 45.6743 279.227 45.6743 279.092 45.5725C278.956 45.4707 278.855 45.4028 278.719 45.267C278.414 44.9275 278.177 44.5881 278.008 44.2147C277.839 43.8413 277.703 43.4 277.568 42.8569C277.5 42.5853 277.669 42.4496 278.042 42.4835C278.584 42.5514 279.126 42.6193 279.634 42.6193C280.142 42.6193 280.717 42.6193 281.327 42.6193H290.099C290.404 42.6193 290.675 42.5853 290.979 42.4835C291.284 42.3817 291.521 42.2798 291.724 42.1441C292.029 41.9404 292.402 41.9404 292.808 42.1441C293.452 42.4496 294.061 42.8908 294.637 43.434C294.874 43.6716 294.942 43.9771 294.806 44.2826L294.84 44.3844ZM301.681 41.2615C301.681 40.8541 301.648 40.4808 301.546 40.1752C301.478 39.8697 301.275 39.5982 300.97 39.3945C300.564 39.0551 300.157 38.7835 299.751 38.5459C299.345 38.3083 298.904 38.0707 298.464 37.867C298.261 37.7991 298.159 37.6633 298.193 37.4597C298.329 36.9844 298.532 36.5431 298.803 36.2037C298.87 36.0679 299.074 36.034 299.345 36.0679C300.225 36.2716 301.14 36.5771 302.088 36.9165C303.036 37.256 303.883 37.6633 304.662 38.1385C304.933 38.3422 305.068 38.6138 305.034 38.9532C304.967 39.5642 304.933 40.1752 304.865 40.8541C304.797 41.533 304.763 42.2119 304.763 42.9248V71.4046C304.763 71.8459 304.628 72.1514 304.357 72.2872C304.052 72.4908 303.747 72.6945 303.409 72.8303C303.07 72.9661 302.731 73.0679 302.359 73.0679C301.919 73.0679 301.715 72.8642 301.715 72.423V41.2275L301.681 41.2615Z" fill="white"/>
</g>
<defs>
<clipPath id="clip0_205_161">
<rect width="224" height="37" fill="white" transform="translate(81 36)"/>
</clipPath>
</defs>
</svg>
